<svg xmlns="http://www.w3.org/2000/svg" viewBox="0 0 499.8885 479.0574"><defs><style>.cls-1{fill:none;}.cls-2{fill:#6a7a6f;}.cls-3{fill:#3e4b44;}.cls-4{fill:#1a1a1b;}.cls-5{fill:#edd6ce;}.cls-6{fill:#d6d4e3;}.cls-7{fill:#1e202c;}.cls-8{fill:#1a1a1c;}.cls-9{fill:#c1c3d2;}.cls-10{fill:#bab8bf;}.cls-11{fill:#fff;}.cls-12{fill:#25ff0d;}.cls-13{fill:#d28b77;}.cls-14{fill:#20222b;}.cls-15{fill:#85899e;}.cls-16{fill:#19191b;}.cls-17{fill:#eae1ea;}.cls-18{fill:#acb5c4;}</style></defs><g id="katman_2" data-name="katman 2"><g id="katman_1-2" data-name="katman 1"><path d="M499.333,478.1948a271.76,271.76,0,0,0-1.4526-50.3187c-.1985-5.1224-.1738-10.2611-1.2044-15.276a23.47,23.47,0,0,0-3.3258-8.3209,51.8145,51.8145,0,0,0-3.5546-6.6165c-.6254-1.2523-1.3109-2.6727-2.0682-4.3127-.2765-.0792-.5583-.1274-.8359-.2007l-.0783-.1185c.5267.0892,1.0568.1542,1.581.26-.58-.2092-1.1775-.36-1.7663-.5413-.7587-1.1483-1.5048-2.2807-2.192-3.3755-3.6257-5.7754-21.9541-12.9529-29.5136-14.2984.1308-.0544.2584-.1082.3895-.1626-.2734.0152-.54.0659-.8119.0889-.12-.0189-.2638-.05-.3774-.0658a14.0766,14.0766,0,0,0-10.5245-8.9272c.0937-.33.1859-.6618.2795-.9924.1355-.2755.2646-.5537.4011-.8288l.0011-.0021s.3238-1.353.7472-3.3711a51.16,51.16,0,0,0,1.9958-14.1937,13.8838,13.8838,0,0,0-.1571-2.4705,18.6563,18.6563,0,0,0-3.0309-8.144,39.0315,39.0315,0,0,0-1.9251-3.4445l-2.092-.8857a18.6258,18.6258,0,0,0-6.0658-3.2209l-.0287-.0253a19.8537,19.8537,0,0,0,1.1043-5.37,10.6361,10.6361,0,0,0-.0887-3.5636,19.8449,19.8449,0,0,0-1.3652-5.28,12.2645,12.2645,0,0,0-.9865-1.8477c-.1827-.4712-.3392-.9519-.5324-1.4189l-1.287-.8917a27.3151,27.3151,0,0,0-8.277-5.7348l.0014-.0038,5.7761-14.7215-.1106-.0511a417.4651,417.4651,0,0,1,19.5371-41.7436q2.2212-4.1283,4.5443-8.2023c1.2169-1.9391,2.4469-3.8692,3.7369-5.7556,2.681-3.92,5.6234-7.8653,6.6-12.513s-.6914-10.2632-5.0557-12.1366a10.3376,10.3376,0,0,0-9.4224,1.2923c-.6422.4622-1.2617.9529-1.8629,1.464a27.9323,27.9323,0,0,0-2.55,2.1542c-.1033.0989-.1907.2132-.2925.3137a27.9153,27.9153,0,0,0-2.3821,2.7005c-.47.6029-.9447,1.2033-1.3656,1.8454-13.5387,17.8582-28.6068,41.72-37.3242,58.6267l-.3089-.1429s-.6792,1.7582-1.6073,3.9572c-.981,2.0111-1.8186,3.8561-2.5559,5.58a8.65,8.65,0,0,1-2.0555,3.0218,11.3249,11.3249,0,0,1-4.6343.6947h0l0,0-2.4039-2.3079a7.5964,7.5964,0,0,1-.8045-1.6054l-.4413-3.006c.0077-.1418,0-.2824.016-.4247a22.8591,22.8591,0,0,1,.781-3.5446c9.3081-17.886,16.1441-36.4659,22.942-55.4588,1.1554-3.2281,2.3092-6.596,2.4139-9.9771.3585-3.2285-.1546-6.35-2.7736-8.2018a7.2773,7.2773,0,0,0-.9925-.5009,5.34,5.34,0,0,0-2.72-.9336,8.5781,8.5781,0,0,0-3.7934,1.0292c-.1073.0467-.2237.08-.3286.13-.0292.0139-.0551.0323-.084.0464a12.12,12.12,0,0,0-2.0193,1.2543c-.2431.1836-.4787.3761-.71.5749a20.3671,20.3671,0,0,0-2.4041,2.4788c-.2391.2891-.4717.5832-.7012.88a59.2882,59.2882,0,0,0-7.0225,10.517c-9.2181,15.3338-15.6061,32.4117-21.5989,49.4007l-.1435-.0261-3.1388,9.3509A180.82,180.82,0,0,1,350.23,312.2881l-1.436,1.4689c1.1969-4.6423,1.394-10.0516,1.6522-14.6207a37.0459,37.0459,0,0,0-1.0174-12.2243c-2.411-9.2735-10.1909-16.6287-17.8742-22.3539-.9038-.7449-1.8467-1.4369-2.7882-2.1305,5.3565.9563,11.0164,1.56,16.1933,2.7253l0,0h0c-.1017-.2834-.2371-.5781-.3506-.8655.0793.0112.16.02.2392.0314a54.6857,54.6857,0,0,0-8.6253-15.8483,61.955,61.955,0,0,1-7.4187-12.2976c-.0648-.1578-.14-.3115-.2018-.47-.0195-.0453-.0349-.0918-.0541-.1372a23.6875,23.6875,0,0,1-1.5421-6.4886,27.7946,27.7946,0,0,1-.14-3.4409,21.8476,21.8476,0,0,1,.9771-5.2686c.5355-1.527,1.101-3.0427,1.6834-4.552.1629-.2667.3406-.51.5-.7824.2377-.4073.4479-.85.6767-1.269.4114-.754.83-1.4985,1.2118-2.2869.2492-.514.4686-1.0551.7054-1.5816.3288-.731.6675-1.4519.9721-2.2029.2308-.5692.4312-1.1552.6479-1.7336.275-.734.56-1.4608.8124-2.2061.2048-.6056.38-1.2183.5692-1.829.2274-.7322.4646-1.46.67-2.196.0661-.2372.1253-.4727.1891-.71a36.46,36.46,0,0,0,2.1248-10.1151c.2037.2081.4234.3986.6164.6178-.1926-.2273-.4129-.426-.6168-.642.0066-.2046-.0107-.4-.01-.6023.0036-.03.01-.0626.0137-.0929l-.0153-.0056,0,0c.0277-.2313.072-.4745.0971-.7036.3314.3618.6355.7146.958,1.0735l2.1441,2.6725c.0285-.2375,4.1025,4.6512,8.051,8.9606l0-.0007.0005.0007c-2.16-12.118-4.9917-24.4672-3.4877-36.684a93.0048,93.0048,0,0,0,66.4085,2.7507,180.3062,180.3062,0,0,1-31.5392-22.15,296.7789,296.7789,0,0,0,78.5513-40.284,188.6541,188.6541,0,0,1-49.7582-10.1716,311.7254,311.7254,0,0,1,39.2886-21.65,639.2072,639.2072,0,0,0-75.97-18.88c6.8076-5.0282,14.7151-9.9856,22.9509-12.3588,1.1776-.3394,2.362-.626,3.5509-.8523h0l0,0a178.8865,178.8865,0,0,0-64.6708-9.9444q-2.3417.0732-4.6836.2049A70.0665,70.0665,0,0,1,352.6152,7.9176c-2.8375-.1743-5.674-.2775-8.5093-.3432-.9328-.0217-1.865-.0248-2.7979-.0346q-3.0466-.0322-6.0889.0172c-.8915.0152-1.7824.0279-2.6737.054-2.7959.08-5.5888.2-8.3758.3853l-.04.0022c-5.7983.3858-11.5707,1.0144-17.3109,1.85q-1.6038.2317-3.2035.485c-.8931.1433-1.7861.2859-2.6774.44q-2.8949.4979-5.7746,1.0667c-.3931.0786-.7842.1662-1.1768.247q-2.7234.5583-5.43,1.1865c-.44.1019-.88.2024-1.3185.307q-6.5933,1.5671-13.0783,3.5358c-.2087.0633-.4175.1261-.626.19q-6.6474,2.0372-13.1611,4.49-.269.1014-.5379.203-6.4041,2.43-12.6591,5.2558-.5136.2317-1.026.4664-2.5248,1.1564-5.0234,2.3742c.1258-.1858.2547-.3624.379-.5526v0c-.4432.2258-.8617.4864-1.28.7464C245.2209,19.5761,249.37,10.75,254.3836,0l0,0V0c-20.7977,5.469-41.0828,20.14-53.7745,37.5007-1.93-9.0913-2.5594-17.603.9527-26.2078l0,0,0,0c-18.9762,13.4681-32.0189,35.0444-39.3191,57.14a46.98,46.98,0,0,1-7.3428-20.6274l0,.0011,0-.001q-.5892,2.0765-1.1064,4.1672c-.2209.8914-.4157,1.7873-.6171,2.682-.1121.4986-.2368.9948-.3429,1.4944-.2258,1.0628-.4252,2.13-.6237,3.1967-.0623.336-.1356.67-.1952,1.0069-.2009,1.13-.3755,2.2639-.5457,3.398-.0411.2743-.0913.5475-.1306.8221-.17,1.1856-.3142,2.3736-.4507,3.5625-.0256.2232-.0588.4458-.0832.6692-.1331,1.2161-.2409,2.4342-.339,3.6528-.0159.1979-.0383.3953-.0533.5932-.0939,1.238-.1625,2.4774-.22,3.717-.0084.179-.0225.3576-.03.5366-.053,1.2518-.0813,2.5042-.0974,3.7567-.0022.1676-.01.3349-.011.5024-.0113,1.2692.0018,2.5382.0283,3.8071.0031.15.0016.3.0052.45.0312,1.2756.0866,2.55.1559,3.8248.0079.1446.0113.2895.02.434.0744,1.2861.1728,2.5709.2861,3.8549.0116.1308.0194.2617.0313.3926.118,1.2931.26,2.5844.4176,3.8744.0149.1217.0264.2434.0417.3651.1619,1.2945.3477,2.5867.5494,3.8771.0183.1172.0336.2345.0522.3517q.31,1.9453.6834,3.8826c.0207.1085.0387.2173.06.3258q.3774,1.9485.819,3.8868c.0227.1.043.2012.066.3015q.4452,1.9476.9554,3.8837c.0175.0669.0319.1344.0495.2013-.3982.1043-.7995.1908-1.1972.298.4007-.0985.8043-.1769,1.2055-.2725.0812.3082.1523.6184.236.926l-.1887.1336a8.9394,8.9394,0,0,1-1.2432-.0856c-2.3993-1.4932-6.6875-.7089-8.4815,1.4193a8.82,8.82,0,0,0-1.0376,8.689,12.004,12.004,0,0,0,3.8892,5.1871,32.155,32.155,0,0,0-1.4593,3.7008,14.914,14.914,0,0,0-1.0842,4.0771,32.2131,32.2131,0,0,0,.4957,14.2316,25.8736,25.8736,0,0,1,1.45,7.6462,22.807,22.807,0,0,1-1.4467,5.76,9.0862,9.0862,0,0,0-1.0726,3.5215c-.0819,2.5626.8,5.6141,3.1814,6.5648h0c.2294-.022.46-.03.689-.0506-3.693,2.9922-5.1661,10.02-2.0982,13.645a26.489,26.489,0,0,0-3.4724,14.6579c-.0032.5751-.025,1.1486.0166,1.7278.0591.4659.1635.9229.2384,1.386a44.417,44.417,0,0,0,1.519,7.1188c2.4267,8.1559,7.129,15.4313,12.2994,22.2032.0807.537.1526,1.0724.24,1.6106.0137-.1248.0173-.25.03-.375l.1407,2.7369a47.4807,47.4807,0,0,0,5.7793,24.6078,182.4083,182.4083,0,0,0-24.1206,9.51c-2.8945,1.2029-5.6684,2.438-8.18,3.7119.2054-.0165.4063-.0069.6109-.0181a60.3707,60.3707,0,0,0-20.01,17.2259c-7.0473,10.0862-9.6844,22.728-9.6241,35.0321s2.6345,24.4411,5.1972,36.4755c-.4573.1683-.9134.3223-1.37.4883-.0319-.1181-.06-.2372-.0919-.3553.0183.1226.0409.2443.0594.3668q-3.615,1.3124-7.2228,2.5447c-1.0887.2751-2.184.5247-3.2912.7216.0611.11.1292.2147.191.3239-.8357.28-1.6724.57-2.5077.8457-5.0764,1.6742-10.1467,3.2784-15.2173,4.8865-9.1252,2.8939-18.2517,5.8034-27.419,9.1757-3.113-.1212-10.2444,1.9127-15.8443,5.3208-1.5829.8063-3.1248,1.6712-4.6165,2.6075-13.2285,5.7675-21.6988,19.1486-25.7321,33.1669a77.4525,77.4525,0,0,0-2.4071,10.3966C-.73,451.56.0332,464.6122.8014,477.5422l3.0915.0067a86.26,86.26,0,0,0,15.5839.034l2.7376.006c.0176.0616.0334.1238.0511.1854l-.0329-.1854,14.3585.0313c.0256.1265.048.2541.0738.38-.0121-.1273-.028-.2533-.04-.38l22.364.0488c.0685.1615.1149.33.19.4892l8.6346.0089c.0864-.1532.1314-.3214.2082-.4784l.0811,0c-.0291.1228-.0438.2485-.076.3706.0829-.1166.1354-.25.2127-.37l64.5915.1408c.0228.1224.04.2456.0633.368l.0032.0164a.132.132,0,0,0,.2614-.03l-.014-.3533,59.2736.1292a.2012.2012,0,0,0,.1778.2055.2044.2044,0,0,0,.224-.1826l.001-.0085,0,0,.0025-.0136,113.9575.2484c.0665.25.11.5038.1886.7507l0,.001h0l5.1618-.74,4.0228.0087c-.0307.0883-.0539.1791-.0855.2671-.011.022-.0113.0478-.0238.069a.2169.2169,0,0,0,.0232.21c-.0224.0872-.0434.17-.0738.2822.0427-.0744.073-.1545.1144-.23.01.009.0121.0238.024.0311a.2293.2293,0,0,0,.3155-.0757l.0355-.0579c.1063-.1589.1876-.3322.2882-.4945l85.8933.1873,17.6236.6h0l.0056-.0024c.4527-.165.8835-.3781,1.33-.5563l.556.0011c-.0252.0131-.05.0274-.0752.04.19-.0173.38-.0226.5693-.0392l30.884.0673c.0089.0277.017.0557.026.0834q6.2392.0091,12.446-.0563l33.28.0726C499.321,478.4841,499.3238,478.3393,499.333,478.1948Zm-150.86-162.9757c-.0792.1288-.1538.26-.2333.3891.132-.3886.2727-.77.3874-1.1728C348.5786,314.6975,348.54,314.9618,348.4729,315.2191Z"/><path class="cls-1" d="M352.1988,119.8152a168.7336,168.7336,0,0,0-16.7057-5.7866,168.736,168.736,0,0,1,16.7058,5.7867Z"/><path class="cls-1" d="M271.524,32.9533l0,0a77.2864,77.2864,0,0,1,8.772-.1518A77.283,77.283,0,0,0,271.524,32.9533Z"/><path class="cls-1" d="M283.7078,89.3134h0q2.4031-.1695,4.7859-.1425Q286.1113,89.1457,283.7078,89.3134Z"/><path class="cls-1" d="M292.4732,34.1c-2.423-.4043-4.8674-.7352-7.34-.9678C287.6058,33.3645,290.05,33.6953,292.4732,34.1Z"/><path class="cls-1" d="M333.249,43.7906c-2.1576-.4171-4.3031-.8844-6.44-1.3881C328.9459,42.9062,331.0914,43.3735,333.249,43.7906Z"/><path class="cls-1" d="M270.3052,106.0648q3.04-.0468,6.0734-.0278Q273.3452,106.0174,270.3052,106.0648Z"/><path class="cls-1" d="M270.3052,106.0648c-.8591.0133-1.7193.046-2.5789.067h0C268.5859,106.1108,269.4461,106.0781,270.3052,106.0648Z"/><path class="cls-1" d="M316.6381,39.8131c-3.352-.8968-6.7053-1.8032-10.0751-2.6614C309.9328,38.01,313.286,38.9163,316.6381,39.8131Z"/><path class="cls-1" d="M294.3261,18.6465c2.9861-1.63,6.0007-3.2078,9.06-4.6975C300.3268,15.4387,297.3122,17.0165,294.3261,18.6465Z"/><path class="cls-1" d="M155.1949,115.095c.0486.184.0922.3689.1416.5527q.6094-.4308,1.22-.8605C156.1027,114.8888,155.6485,114.9894,155.1949,115.095Z"/><path class="cls-1" d="M311.6792,10.147h0c-2.7884,1.2167-5.5593,2.4714-8.2924,3.802C306.12,12.6183,308.8906,11.3638,311.6792,10.147Z"/><path class="cls-2" d="M347.9873,316.6729a.8861.8861,0,0,1-.1246-.0265,17.173,17.173,0,0,1-.9218,1.9631A11.2369,11.2369,0,0,0,347.9873,316.6729Z"/><path class="cls-2" d="M115.6393,460.6612c-.0892-5.5069.146-11.0159.5631-16.5083.4617-5.4889,1.1024-10.9655,2.0653-16.3882q1.2534-7.4571,3.2528-14.7585a12.7281,12.7281,0,0,1-4.5079-1.6651,10.9478,10.9478,0,0,1-3.88-4.5569,24.8777,24.8777,0,0,1-1.7791-5.4795c-.76-3.67-1.5144-7.2792-2.187-10.94l-.2506-1.3549a60.6426,60.6426,0,0,1-13.38-15.8171c-5.6871,1.9057-11.3536,3.7155-16.905,5.4756-9.297,2.9482-18.9116,5.9962-28.4009,9.4874a.8529.8529,0,0,1-.3607.0568c-3.6413-.0934-14.1871,3.1826-19.4628,8.2989a.9381.9381,0,0,1-.2142.1557c-.1973.1042-.3846.2252-.5805.3319a135.7756,135.7756,0,0,0-5.8534,17.8039,132.7781,132.7781,0,0,0-3.5725,20.8108,136.7013,136.7013,0,0,0-.4973,21.1143l.35,5.2817.5727,5.2675.7264,5.2583.7287,4.1146,14.3426.0314c-.2889-1.4487-.577-2.8978-.8449-4.3541l-.8311-5.7264-.52-5.7675-.2837-5.789A131.2394,131.2394,0,0,1,40.92,409.3944a119.7409,119.7409,0,0,1,9.4739-21.0873,174.4433,174.4433,0,0,0-8.1067,21.526,164.6246,164.6246,0,0,0-6.9157,45.2023l.0244,5.7432.2526,5.7428.4082,5.7431c.1716,1.4678.3206,2.9427.4683,4.4177l22.098.0482a12.633,12.633,0,0,1-.5581-5.6378,6.769,6.769,0,0,1,1.792-3.4385,5.0268,5.0268,0,0,1,3.8068-1.5115,6.5469,6.5469,0,0,1,5.7076,4.9254,8.0235,8.0235,0,0,1,.1336,3.7227,9.3277,9.3277,0,0,1-.7278,1.9618l47.85.1044c-.3221-2.64-.508-5.2909-.7132-7.9445C115.7791,466.1649,115.6938,463.4145,115.6393,460.6612Z"/><path class="cls-2" d="M158.5807,359.3269a.84.84,0,0,1,.3717-.78c.2032-.1281.4-.2651.6022-.3945-.167-3.18-.3321-6.3508-.5688-9.5109-.3321-4.1472-.6736-8.286-1.17-12.4094-.452-4.1285-1.0549-8.2373-1.6709-12.3518-.312-2.0572-.6631-4.1092-1.0353-6.16l-.5219-2.9876a7.1546,7.1546,0,0,0-.5109-1.7882c.053-.1169.0848-.2411.1358-.3589l-.1823-1.0435c.1.2626.1811.5312.2762.7954a23.4989,23.4989,0,0,0-4.2-24.9683,58.9157,58.9157,0,0,0-9.1778,11.596,44.9483,44.9483,0,0,0-5.852,17.0506,99.7913,99.7913,0,0,0-.4,18.2791c.4951,12.2873,1.3845,24.5611,2.44,36.8185q.7721,9.1962,1.7844,18.3733c.6067,6.1263,1.357,12.2368,2.0672,18.3571-1.1308-6.0574-2.0627-12.1484-2.9793-18.2433q-1.2817-9.1548-2.3077-18.346c-1.3555-12.2562-2.2322-24.559-2.8757-36.8772a101.4793,101.4793,0,0,1,.5851-18.6012A44.13,44.13,0,0,1,139.7,298.2223a59.6348,59.6348,0,0,1,9.7292-11.6066,23.8105,23.8105,0,0,0-4.45-3.5433,47.5285,47.5285,0,0,0-9.044,11.6687,59.1248,59.1248,0,0,0-6.0589,18.3165,127.0808,127.0808,0,0,0-1.51,19.4378,296.5733,296.5733,0,0,0,1.7007,39.12q1.0217,9.7485,2.7146,19.42c1.0424,6.3432,2.362,12.6392,3.7846,18.9183.8235-.19,1.6445-.3913,2.4609-.6112a62.6812,62.6812,0,0,0,10.3548-3.7812,68.1761,68.1761,0,0,0,8.8778-4.9187q.9894-9.8234,1.1359-19.7A190.9849,190.9849,0,0,0,158.5807,359.3269Z"/><path class="cls-2" d="M108.0613,379.215l2.5476,10.8457c.8671,3.6036,1.59,7.2712,2.4209,10.8547.8119,3.5147,2.1234,7.055,4.9943,8.8609,2.8362,1.8641,6.6339,1.9219,10.2049,1.58a69.76,69.76,0,0,0,8.3179-1.3978c-1.8194-6.1776-3.3222-12.4476-4.6688-18.7524q-1.9637-9.6446-3.2437-19.4206a274.2767,274.2767,0,0,1-2.141-39.3276,128.7881,128.7881,0,0,1,1.7048-19.6931,57.0277,57.0277,0,0,1,6.4847-18.7264,48.4674,48.4674,0,0,1,9.3631-11.5431,23.5446,23.5446,0,0,0-10.6611-2.9783,59.6051,59.6051,0,0,0-21.43,17.8133c-6.2361,8.9252-9.5057,20.8517-9.44,34.4684.06,12.2553,2.6616,24.4711,5.1776,36.285a.9378.9378,0,0,1-.5942,1.0749c-.4848.1783-.9719.343-1.4572.5191l.0089.04C106.4853,372.8766,107.2547,376.05,108.0613,379.215Z"/><path class="cls-2" d="M332.6858,302.7193a22.59,22.59,0,0,0-4.2588-4.9345,48.3679,48.3679,0,0,1-6.82,7.0786,69.26,69.26,0,0,1-21.1464,12.6648c-3.8692,1.4759-7.8377,2.468-11.3661,4.24a16.6848,16.6848,0,0,0-8.0927,8.028,40.1935,40.1935,0,0,0-3.0977,11.5151l-3.3828,24.2316-3.5,24.2267-3.6944,24.1876a33.7964,33.7964,0,0,0,10.175,1.0672,47.4164,47.4164,0,0,0,21.2913-5.8332,78.8789,78.8789,0,0,0,17.7986-13.539c2.7085-2.6082,5.2927-5.3559,7.8212-8.1591,2.18-2.3377,4.2858-4.7467,6.4263-7.1288a182.2936,182.2936,0,0,1-2.8319-24.226,78.3465,78.3465,0,0,1-.1219-12.5871,22.2436,22.2436,0,0,1,4.3-11.87,19.5606,19.5606,0,0,1,1.93-2.04C335.8338,320.5878,337.3436,310.6492,332.6858,302.7193Z"/><path class="cls-2" d="M369.5,270.5169q-.1252.3538-.25.7075l.0386.007C369.3591,270.9934,369.4283,270.7547,369.5,270.5169Z"/><path class="cls-2" d="M188.6476,452.6609c1.0054-4.03,2.2408-7.9989,3.4407-11.9647,1.1431-3.8677,2.2732-7.7376,3.4867-11.5927-5.7136-4.9455-11.5648-9.7349-17.6779-14.1615a135.7724,135.7724,0,0,0-19.51-11.7952.57.57,0,0,1-.3157-.5726l.0015-.0118c.0646-.5916.1127-1.1842.1727-1.776a58.2186,58.2186,0,0,1-18.8187,9.92,57.2036,57.2036,0,0,1-11.0188,2.3367,27.2283,27.2283,0,0,1-5.7438.1194c-.3284-.0252-.6515-.0826-.9758-.133-.7028,4.9879-1.4132,9.96-2,14.9425-.6188,5.44-1.2064,10.877-1.6179,16.33-.456,5.45-.7388,10.9114-.9891,16.38-.12,2.7351-.1968,5.473-.2483,8.2136l-.1718,7.9611,16.0082.0349a126.5982,126.5982,0,0,1-1.7675-14.9843,134.64,134.64,0,0,1,.1011-16.4392,130.0759,130.0759,0,0,1,2.1138-16.3006,115.899,115.899,0,0,1,4.1723-15.8652c-1.0646,5.36-2.0389,10.714-2.7855,16.0954-.7158,5.385-1.31,10.7785-1.6408,16.1926-.3532,5.4116-.4842,10.8368-.4286,16.266.019,4.8728.2782,9.7469.6195,14.6275l.0266-.28.0272.6886,51.8678.1131c.3-4.0607.7921-8.0943,1.3632-12.121C186.95,460.7858,187.67,456.6962,188.6476,452.6609Zm-38.1525-41.242h0c5.1591,2.9783,10.1352,6.0839,15.2333,9.0163,5.07,2.98,10.2286,5.7715,15.3652,8.79A79.1309,79.1309,0,0,1,150.4951,411.4189Z"/><path class="cls-2" d="M485.5658,392.831l-.0041-.0063c-.0235-.0033-.0467-.0083-.07-.0116C485.5163,392.8187,485.541,392.8253,485.5658,392.831Z"/><path class="cls-2" d="M316.4941,301.3341c-6.1211,4.88-13.5506,7.4259-20.5963,10.13a66.38,66.38,0,0,0-10.2192,4.69,24.9642,24.9642,0,0,0-8.09,7.3267,36.32,36.32,0,0,0-4.5068,10.124c-1.0688,3.611-2.005,7.2994-2.8831,10.9812-1.7672,7.3727-3.1114,14.8417-4.3033,22.3337a314.0793,314.0793,0,0,0-3.58,45.3045,33.8029,33.8029,0,0,0,5.0114,1.7328l2.7838-24.3093,2.9814-24.2961c.9737-8.1062,2.06-16.177,3.124-24.2879a41.8141,41.8141,0,0,1,3.1724-12.0466,18.9945,18.9945,0,0,1,3.6488-5.25,19.252,19.252,0,0,1,5.2227-3.6757,123.2089,123.2089,0,0,1,11.5754-4.2387A67.5588,67.5588,0,0,0,320.5471,303.64a51.1722,51.1722,0,0,0,6.7355-6.8166,22.63,22.63,0,0,0-4.37-2.6222A27.9585,27.9585,0,0,1,316.4941,301.3341Z"/><path class="cls-2" d="M295.2592,299.56a.7756.7756,0,0,1-.4879.1816,30.0138,30.0138,0,0,0-25.4375,15.3219,55.1831,55.1831,0,0,0-5.1476,14.8025c-1.1407,5.1816-2.1307,10.4025-2.8854,15.6594a283.0888,283.0888,0,0,0-2.8661,31.748c-.403,10.6345-.376,21.2915-.24,31.95l0,.0123a.695.695,0,0,1-.3674.6173,33.7681,33.7681,0,0,0,4.4829,2.3684,260.1347,260.1347,0,0,1,2.1758-45.5047c.9794-7.563,2.3525-15.0767,4.0589-22.5156.8593-3.7223,1.7678-7.4167,2.8293-11.1074a38.08,38.08,0,0,1,4.6707-10.6667,26.479,26.479,0,0,1,8.72-7.82,68.0149,68.0149,0,0,1,10.5262-4.7429c7.1268-2.6284,14.3213-5.18,20.3133-9.6753a26.6452,26.6452,0,0,0,6.1491-6.4636A22.5862,22.5862,0,0,0,315.93,292.27c-3.712-.4551-8.274,1.41-12.5083,2.9888a26.9264,26.9264,0,0,1-6.6614,2.346A7.31,7.31,0,0,1,295.2592,299.56Z"/><path class="cls-2" d="M423.856,477.5267l.0643,0c.063-.0351.1258-.0707.1888-.1059C424.0262,477.46,423.9391,477.4887,423.856,477.5267Z"/><path class="cls-2" d="M436.9072,381.2483c-.34.9252-.6411,1.8632-.9522,2.7979a28.5427,28.5427,0,0,1,17.2368-8.9007,13.2114,13.2114,0,0,0-9.7723-8.2164.925.925,0,0,1-.3819-.1769c-.9343,1.9414-1.85,3.8906-2.7127,5.861C439.0792,375.4522,437.9625,378.3424,436.9072,381.2483Z"/><path class="cls-2" d="M356.9126,465.4171a62.55,62.55,0,0,1-10.5989-19.07,206.626,206.626,0,0,1-6.1034-20.9336,61.3578,61.3578,0,0,1-1.98-10.8311,20.8477,20.8477,0,0,1,1.715-10.5355,64.756,64.756,0,0,1-8.9891-23.0014c-.03-.1565-.0514-.3143-.0805-.471q-2.8193,3.8042-5.7647,7.5175c-2.3969,2.9357-4.878,5.8116-7.4943,8.5758a75.3163,75.3163,0,0,1-17.9319,14.1709c-.5326.2865-1.0784.5432-1.6206.8084a43.5789,43.5789,0,0,1-10.8372,12.7856,11.8356,11.8356,0,0,1-3.6344,2.15,4.8752,4.8752,0,0,1-4.0927-.36,5.0933,5.0933,0,0,1-1.5221-5.9247,7.1952,7.1952,0,0,1,2.9419-3.9847c-1.1312.0857-2.2656.1434-3.4045.1472a37.13,37.13,0,0,1-11.3323-1.85,28.6889,28.6889,0,0,1-8.532-4.6648,117.6773,117.6773,0,0,1-30.9493,10.5784c-2.7.5046-5.41.9539-8.1376,1.2686-2.7247.3369-5.47.513-8.1687.8229a28.9278,28.9278,0,0,0-7.8539,1.9737,19.5506,19.5506,0,0,0-3.6053,1.802,7.5124,7.5124,0,0,0-1.4982,1.2754,4.1375,4.1375,0,0,0-.5488.7826l-.0611.1059a.64.64,0,0,1-.15.1847c-.0263.022-.0559.04-.0832.06a.468.468,0,0,1,.0453.1526l-.0019.0449-.4618,12.2559c-.1589,4.0858-.2363,8.1792-.4528,12.273q-.3194,6.14-.9973,12.2724-.6144,5.6455-1.732,11.2245l46.5144.1014c.1642-2.805.4832-5.5953.801-8.3906.4073-2.86.88-5.7109,1.4-8.5565a157.419,157.419,0,0,1,10.2286-33.1011,133.6709,133.6709,0,0,1,7.85-15.4421c-2.2826,5.3014-4.5023,10.6047-6.5194,15.9813-1.9964,5.3833-3.897,10.7959-5.5679,16.2821-1.7123,5.4734-3.1962,11.0146-4.582,16.5863-.6862,2.788-1.3145,5.591-1.9031,8.4057l-.8918,4.2247q-.3666,2.0065-.788,4.01l15.9243.0347c.0859-2.5011.3245-4.9916.5731-7.4863.3362-2.5754.7438-5.1425,1.2025-7.7033a121.7931,121.7931,0,0,1,3.8652-15.1166,118.3,118.3,0,0,1,5.78-14.4955,93.92,93.92,0,0,1,7.7713-13.4966c-2.3213,4.6391-4.5045,9.3132-6.4593,14.0794-1.9328,4.7738-3.7411,9.5919-5.31,14.4916-1.6084,4.8869-2.9771,9.8489-4.2381,14.8443-.6248,2.5-1.1873,5.016-1.7049,7.5451l-.7822,3.7975q-.3092,1.77-.662,3.5405l51.05.1112a16.8384,16.8384,0,0,1-.098-6.3679,7.6862,7.6862,0,0,1,2.1042-3.7672,6.4971,6.4971,0,0,1,4.0273-1.9625,5.23,5.23,0,0,1,4.28,1.6979,7.2717,7.2717,0,0,1,1.861,4.0037,9.8693,9.8693,0,0,1-.41,4.2175,16.4337,16.4337,0,0,1-.9926,2.202l57.3139.125c-.6712-.2077-1.3311-.441-1.9825-.6929A37.0615,37.0615,0,0,1,356.9126,465.4171ZM214.5251,431.5264c3.6746-.6666,7.2773-.9663,10.8917-1.3343,3.62-.31,7.2152-.6813,10.9506-.7014A39.43,39.43,0,0,1,214.5251,431.5264Zm25.197-4.4515c2.2041-.9138,4.2884-1.5206,6.37-2.2536,2.099-.6832,4.1236-1.4635,6.4326-2.07A13.7352,13.7352,0,0,1,239.7221,427.0749Z"/><path class="cls-2" d="M435.6253,385.0151a95.7464,95.7464,0,0,0-3.3441,13.87,134.3882,134.3882,0,0,1,6.451,14.8979,37.9694,37.9694,0,0,1,3.0772-5.3821,44.0841,44.0841,0,0,1,4.8543-5.6926,40.5349,40.5349,0,0,1,27.0574-11.6347,43.9115,43.9115,0,0,1,7.4706.39,37.99,37.99,0,0,1,4.0439.859c-.5415-.8239-1.0948-1.656-1.594-2.4512-3.41-5.43-22.48-13.0316-29.6451-14.0067a.9314.9314,0,0,1-.467-.2082c-3.079,1.2863-6.0633,2.5708-8.9483,4.0966C441.5182,381.322,438.61,383.1307,435.6253,385.0151Z"/><path class="cls-3" d="M147.8951,279.3561a46.9456,46.9456,0,0,1,17.7992-8.0079q-1.196-2.0915-2.3469-4.2082a.91.91,0,0,1-.1655.0955,181.9764,181.9764,0,0,0-28.1545,11.4688c-.5567.2537-1.0947.5421-1.6425.8126a23.5446,23.5446,0,0,1,10.6611,2.9783A48.4254,48.4254,0,0,1,147.8951,279.3561Z"/><path class="cls-3" d="M144.979,283.0724a23.8105,23.8105,0,0,1,4.45,3.5433c.8469-.7861,1.6931-1.5734,2.586-2.31a96.9027,96.9027,0,0,1,15.24-10.2892c-.5231-.8857-1.0477-1.77-1.5584-2.6636a48.4438,48.4438,0,0,0-17.25,8.7322C147.2383,281.0228,146.0874,282.0265,144.979,283.0724Z"/><path class="cls-3" d="M150.1066,287.3686a23.4989,23.4989,0,0,1,4.2,24.9683c.6149,1.7085,1.1532,3.4409,1.6986,5.1756.5564,2.0206,1.0689,4.0539,1.5562,6.0958a114.6436,114.6436,0,0,1,2.8591,24.9774c.0309,3.0957-.1411,6.1864-.4124,9.2691a103.8731,103.8731,0,0,0,20.9377-17.8939c-1.64-9.3248-3.0155-18.6937-4.2954-28.0716-1.2742-9.2819-2.2636-18.6-3.1756-27.92q-3.2469-4.8864-6.2167-9.9479a106.68,106.68,0,0,0-14.6422,10.9723C151.7482,285.7535,150.927,286.5609,150.1066,287.3686Z"/><path class="cls-3" d="M154.077,312.9439a7.1546,7.1546,0,0,1,.5109,1.7882l-.3751-2.1471C154.1618,312.7028,154.13,312.827,154.077,312.9439Z"/><path class="cls-3" d="M308.0493,271.2442c.0074.2472.012.4521.0126.587-.02.1871-.06.3711-.0827.5579-.1648,2.7932-.4417,5.5813-.8589,8.3543a.454.454,0,0,1-.8866.0469l-.0038-.0146a20.8145,20.8145,0,0,0-4.0184-7.5216l-2.617,12.6689-1.4211,6.8792a29.2271,29.2271,0,0,1-.8522,3.4983,7.3192,7.3192,0,0,1-.3042.7979,43.7753,43.7753,0,0,0,20.3594-19.29,26.9868,26.9868,0,0,1-13.9546,17.4509c4.2343-1.5787,8.7963-3.4439,12.5083-2.9888a22.5862,22.5862,0,0,1,5.8237,1.4556c.4047-.5978.8063-1.1985,1.1624-1.8294a18.7646,18.7646,0,0,0,2.49-10.6468,14.244,14.244,0,0,0-4.9684-9.6453,11.9019,11.9019,0,0,0-10.4583-2.9587,11.9178,11.9178,0,0,1,10.7792,2.5755,14.9574,14.9574,0,0,1,5.5683,9.9382,19.7582,19.7582,0,0,1-2.3634,11.3015c-.32.5994-.6892,1.1681-1.0512,1.7408a22.63,22.63,0,0,1,4.37,2.6222c.5176-.6309,1.0307-1.2659,1.518-1.9215a23.6982,23.6982,0,0,0,4.5841-10.8537,14.6374,14.6374,0,0,0-3.2685-11.0309,23.67,23.67,0,0,0-9.6792-6.9676,76.8389,76.8389,0,0,0-11.6985-3.4534,68.8463,68.8463,0,0,1,11.8817,2.9944,24.369,24.369,0,0,1,10.2032,6.848,16.1408,16.1408,0,0,1,3.0743,5.4631,15.8938,15.8938,0,0,1,.6605,6.2648,24.9723,24.9723,0,0,1-4.58,11.5569c-.4952.704-1.02,1.3853-1.5511,2.0609a22.59,22.59,0,0,1,4.2588,4.9345c4.6578,7.93,3.148,17.8685,1.43,26.9225,2.42-2.2476,5.2587-3.9385,7.8155-5.8911a22.6355,22.6355,0,0,0,4.4271-4.3034c.2141-.2665.3946-.5545.5826-.8378a17.173,17.173,0,0,0,.9218-1.9631c-.0223-.0072-.0458-.0055-.0678-.0146a.9359.9359,0,0,1-.564-1.07,100.4441,100.4441,0,0,0,2.2908-18.343,32.9528,32.9528,0,0,0-4.3564-17.3972c-3.9334-6.3634-10.7674-12.1683-20.295-17.2287a.9365.9365,0,0,1-.44-1.1537.9259.9259,0,0,1,.3815-.4572c-5.7979-1.9053-11.62-3.8505-17.4187-5.8881A92.9931,92.9931,0,0,1,308.0493,271.2442Z"/><path class="cls-4" d="M196.2917,428.304c.02-.0158.0252-.0306.015-.01l.0659-.1169a4.72,4.72,0,0,1,.6194-.8973,8.1042,8.1042,0,0,1,1.607-1.3891,20.1589,20.1589,0,0,1,3.71-1.8861,29.5765,29.5765,0,0,1,8.0028-2.0626,142.2407,142.2407,0,0,0,16.2117-2.3048,116.94,116.94,0,0,0,29.9194-10.6592c-.0305-.0269-.0646-.0491-.0951-.0761.0352.0247.0729.0449.1082.07.1052-.0545.2121-.1052.3171-.16-.6435-21.1719-.529-42.5025,2.5631-63.5787.7758-5.3008,1.7882-10.5649,2.955-15.7972a57.0177,57.0177,0,0,1,5.3837-15.2985,31.29,31.29,0,0,1,26.7262-15.8946,10.2507,10.2507,0,0,0,2.4016-5.7349l.2493-1.1171a76.8824,76.8824,0,0,1,1.538-39.487q-2.6979-1.005-5.38-2.045c-1.8207-.6784-3.6415-1.3553-5.4536-2.0571l-.25,1.2578-.0019.0076a162.7246,162.7246,0,0,1-6.2718,20.7591,179.9959,179.9959,0,0,1-8.8065,19.8673,115.8031,115.8031,0,0,1-11.5823,18.4535,59.8107,59.8107,0,0,1-7.4659,8.0508,26.7641,26.7641,0,0,1-9.5367,5.7492l-.07.0181-.0191.0036a86.6677,86.6677,0,0,1-27.0225,1.3817,40.3283,40.3283,0,0,1-13.12-3.82,35.5822,35.5822,0,0,1-10.6551-8.5417,122.774,122.774,0,0,1-8.1391-10.79l-7.7536-10.9868c-1.1318-1.6015-2.2326-3.2239-3.321-4.8543,1.1654,9.15,2.5284,18.2726,3.9122,27.3869,1.4447,9.4672,3.1047,18.8982,4.7921,28.3215a.7486.7486,0,0,1-.1646.6039,105.4557,105.4557,0,0,1-21.9821,19.0074,192.2205,192.2205,0,0,1,.6511,21.297c-.1938,7.14-.7923,14.261-1.6841,21.3375a142.6426,142.6426,0,0,1,19.06,12.0434c6.0749,4.4547,11.8336,9.307,17.5233,14.2212a.4308.4308,0,0,1,.1971-.0925.2863.2863,0,0,0,.0722-.054A1.6825,1.6825,0,0,0,196.2917,428.304Z"/><path class="cls-4" d="M307.402,257.625c.054,1.0385.1165,2.2534.1827,3.5551C307.5469,259.9944,307.4839,258.8093,307.402,257.625Z"/><path class="cls-5" d="M188.7465,219.394a95.9252,95.9252,0,0,1,15.7493-9.5886,48.092,48.092,0,0,1,7.4623-2.71,21.695,21.695,0,0,1-1.602-5.606,21.948,21.948,0,0,1-.1352-6.7728,21.9524,21.9524,0,0,1,1.9857,6.4766,21.69,21.69,0,0,1,.2331,5.7721c.2672-.07.5316-.15.8-.2162a31.9472,31.9472,0,0,1,9.0147-.7689c-2.0182-2.0765-4.0309-4.1533-6.0729-6.1863a94.0142,94.0142,0,0,0-19.4927-15.769,58.5172,58.5172,0,0,0-23.8859-7.12,142.3672,142.3672,0,0,0-17.2616-.346,1.5689,1.5689,0,0,1-.4607.8712c-.5654,5.85-.9943,11.6751-1.0463,17.5043a166.2014,166.2014,0,0,0,.628,17.4439.8775.8775,0,0,1-.1561.5777,66.2225,66.2225,0,0,1,2.7073,23.1713,49.3942,49.3942,0,0,0,16.4854-6.4541C178.9,226.5785,183.7976,222.9778,188.7465,219.394Zm16.883-19.6435a9.42,9.42,0,0,1-7.1058,8.6622c1.2062-1.6353,2.4-2.9336,3.5319-4.3483C203.2248,202.68,204.2653,201.2545,205.63,199.7505Zm-5.9619-7.4176a19.4418,19.4418,0,0,0-5.9727-5.4493,16.9749,16.9749,0,0,0-15.1727-1.143,19.3958,19.3958,0,0,0-6.7191,4.4978,14.545,14.545,0,0,1,6.1114-5.8227,15.6229,15.6229,0,0,1,16.5824,1.244A14.5214,14.5214,0,0,1,199.6676,192.3329Zm-12.6062-12.1586c-4.1822.5793-8.2741.866-12.3747,1.29-4.1061.3671-8.1775.8719-12.3921,1.11A44.2794,44.2794,0,0,1,187.0614,180.1743Zm-19.1865,17.7421-.0044-.0086a.92.92,0,0,1,.4015-1.237.9411.9411,0,0,1,.2907-.0915,72.23,72.23,0,0,1,15.1485-.5724,68.165,68.165,0,0,1,14.8727,2.5474l0,0h0l-.0006.0006a29.6672,29.6672,0,0,1-6.7941,5.7348,18.85,18.85,0,0,1-8.6459,2.6881,16.6039,16.6039,0,0,1-8.8452-2.444A16.816,16.816,0,0,1,167.8749,197.9164Z"/><polygon class="cls-5" points="198.584 198.554 198.584 198.554 198.582 198.554 198.584 198.554"/><path class="cls-5" d="M154.6107,221.0831c-.1078-.0443-.2138-.0893-.3192-.1384a5.6138,5.6138,0,0,1-3.3592-1.7025,6.8972,6.8972,0,0,1-1.8683-3.5089,6.4159,6.4159,0,0,1,2.6872-6.6334c-.72-2.207-1.4532-4.41-2.1327-6.63-1.0915-3.4317-2.0893-6.8949-3.0212-10.38-.0218-.0649-.0418-.1271-.0634-.1917-3.4889,6.4624-3.9228,14.3169-1.2235,23.3917,2.3477,7.8908,6.9448,14.9556,11.1146,20.5462-.5278-3.8129-.9364-7.6013-1.4123-11.3908C154.8845,223.3237,154.7463,222.2027,154.6107,221.0831Z"/><path class="cls-6" d="M150.752,202.0886c.57,1.4225,1.0924,2.8608,1.6436,4.2895a104.0452,104.0452,0,0,1,.0072-11.5038,93.73,93.73,0,0,1,2.678-17.4434,1.5689,1.5689,0,0,0,.4607-.8712q-3.2058.1253-6.4051.3939a.9175.9175,0,0,1-.3156.7771,10.2211,10.2211,0,0,0-3.3822,6.85,7.3152,7.3152,0,0,0,1.388,5.48.9376.9376,0,0,1,.0925,1.0795c-.1439.2453-.25.5076-.3852.7571.0216.0646.0416.1268.0634.1917C148.0573,195.3972,149.4515,198.7271,150.752,202.0886Z"/><path class="cls-7" d="M177.8577,288.6442l7.98,10.8158a121.6035,121.6035,0,0,0,8.2651,10.4941,34.7416,34.7416,0,0,0,10.2555,8.09,38.6423,38.6423,0,0,0,12.5921,3.5623,90.7039,90.7039,0,0,0,26.4008-1.3987,25.0754,25.0754,0,0,0,8.89-5.3116,58.15,58.15,0,0,0,7.3064-7.7733A129.91,129.91,0,0,0,271.25,289.0681a193.5373,193.5373,0,0,0,9.21-19.5436,182.4757,182.4757,0,0,0,7.0456-20.4652l-.0018.0075.0019-.0076.25-1.2578c-3.3252-1.288-6.6441-2.5933-9.9388-3.96A168.9575,168.9575,0,0,1,234.33,217.5986c-4.272-3.6314-8.1819-7.6122-12.0576-11.6a42.7683,42.7683,0,0,0-17.1453,5.1032A126.5147,126.5147,0,0,0,189.84,220.916a133.2485,133.2485,0,0,1-15.4424,10.0125,55.7222,55.7222,0,0,1-8.5038,3.64,35.5124,35.5124,0,0,1-8.6848,1.6174c-.0126.2055-.0354.4108-.05.6162.3058.4029.6173.82.9156,1.2057a.9351.9351,0,0,1,.19.6712,46.3641,46.3641,0,0,0,5.4588,27.2123.9367.9367,0,0,1,.0476.8.9176.9176,0,0,1-.39.4287A257.4309,257.4309,0,0,0,177.8577,288.6442Zm44.9956-31.1a7.3066,7.3066,0,0,1-4.9656,1.7421c-3.0945-.27-5.2078-3.1457-6.8959-5.7532a13.5874,13.5874,0,0,1-2.9027-7.3445,2.7844,2.7844,0,0,1,1.331-2.5936c1.0518-.4615,2.2158.2093,3.26.6868a10.1718,10.1718,0,0,0,7.6315.2988c1.0693-.3909,2.0676-.9618,3.1478-1.3219C232.0919,240.3821,226.1018,255.0286,222.8533,257.5447Z"/><path class="cls-7" d="M239.339,108.2883q.7448,2.0922,1.3729,4.2223-.6281-2.1292-1.3729-4.2223Z"/><path class="cls-7" d="M267.7263,106.1318c-3.1955.078-6.3932.1934-9.5916.3742,3.1984-.1808,6.3961-.2962,9.5916-.3742Z"/><path class="cls-7" d="M241.6444,116.0281h0c-.29-1.1783-.5895-2.3539-.9325-3.5175C241.0549,113.6741,241.3543,114.85,241.6444,116.0281Z"/><path class="cls-7" d="M146.8135,116.166a5.8832,5.8832,0,0,0-2.21,1.5287,8.7827,8.7827,0,0,0-.8951,1.54A8.7621,8.7621,0,0,1,146.8135,116.166Z"/><path class="cls-7" d="M172.8819,175.9952a59.4574,59.4574,0,0,1,18.1193,3.89c1.3577.0051,2.7145.07,4.07.1832-2.0949-.5332-4.1959-1.0444-6.3116-1.5018q4.7467.8234,9.4533,1.8437c12.1636,1.6281,24.173,6.4193,35.5433,5.995q-5.3612-2.2531-10.7579-4.4231c-9.1066-3.5763-18.2909-6.9569-27.5742-10.0538a93.0712,93.0712,0,0,1-13.8578-5.2382,25.004,25.004,0,0,1-6.1405-4.3712,15.8255,15.8255,0,0,1-3.9433-6.4534c-1.5195-4.949-.3347-10.0545,1.0413-14.7138A83.296,83.296,0,0,1,177.9,127.4147a22.4381,22.4381,0,0,1,10.2952-10.494c4.6947-2.109,10.0124-1.6822,14.822-.742a213.809,213.809,0,0,1,28.25,8.5091,217.9062,217.9062,0,0,1,24.6843,11.0511q-1.3416-7.0383-2.1265-14.1737a170.4441,170.4441,0,0,0-88.0891-8.6015c-3.0715.5127-6.1292,1.1406-9.1787,1.8235q-.611.43-1.22.8605c.0421.1566.0778.3144.12.4709a.9387.9387,0,0,1-.8762,1.1848,11.9218,11.9218,0,0,1-2.4556-.2344,5.16,5.16,0,0,0-2.7825.0265,6.9056,6.9056,0,0,0-4.3463,3.5818c-1.3643,3.1836.9119,6.8789,3.32,10.0679a.937.937,0,0,1,.0952.9742,31.2962,31.2962,0,0,0-2.0967,21.6217,26.5847,26.5847,0,0,1,1.48,7.8513,19.411,19.411,0,0,1-1.2113,5.228,24.1289,24.1289,0,0,0-.9971,3.5608c-.4422,2.5993.586,5.67,2.8237,6.0969a.9391.9391,0,0,1,.7343.6949c.01.0383-.0093.0751-.0047.1136A132.8437,132.8437,0,0,1,172.8819,175.9952Z"/><path class="cls-8" d="M332.6021,184.9457c.2518,5.7175-.3262,11.4348-.064,17.12a.2451.2451,0,0,1-.2334.2562.2539.2539,0,0,1-.1894-.0765c-6.2128-6.3861-11.3143-13.7-16.8272-20.6055-.0827,12.05.6807,24.0921,1.6736,36.1115a.6984.6984,0,0,1-.6383.7534.7184.7184,0,0,1-.5611-.2124,150.5525,150.5525,0,0,1-22.645-30.1216,173.9029,173.9029,0,0,1-10.0164-20.2549,18.3086,18.3086,0,0,1-1.7934,4.6219,18.976,18.976,0,0,1-3.6642,4.9656q-.0386,6.546.46,13.0883a.9122.9122,0,0,1-.8431.9766.9224.9224,0,0,1-.856-.4524c-1.1273-1.954-2.2021-3.9358-3.2514-5.93a20.2845,20.2845,0,0,1-.926,3.364,7.985,7.985,0,0,1-.4053,1.0059,20.3288,20.3288,0,0,1-.9974,2.02,10.0232,10.0232,0,0,1-6.2369,4.0385,22.76,22.76,0,0,1-3.7171.6127,15.307,15.307,0,0,1-3.7923-.2716,32.7268,32.7268,0,0,1-7.0862-2.4073c-5.3728-2.4934-10.79-4.8534-16.2354-7.142-11.37.4243-23.38-4.3669-35.5433-5.995a240.9793,240.9793,0,0,1,26,7.1214c11.6182,3.7337,23.0587,7.9907,34.409,12.4612,11.2876,4.6269,22.4991,9.4492,33.4915,14.7423,1.3765.6553,2.7486,1.3552,4.1,1.9033,1.3931.5359,2.8213,1.0245,4.2748,1.44,2.8992.8553,5.8549,1.5482,8.8292,2.133a76.183,76.183,0,0,0,8.9976,1.3139,38.8563,38.8563,0,0,0,4.5413.0815,12.6016,12.6016,0,0,0,3.4943-.613,29.0527,29.0527,0,0,1,.679-2.9612.9159.9159,0,0,1,.1374-.2838c6.3341-8.8858,9.6247-21.5174,10.5916-30.3767a.92.92,0,0,1,.2446-.5166,6.0153,6.0153,0,0,0-2.0263-.97A31.2684,31.2684,0,0,1,332.6021,184.9457Z"/><path class="cls-8" d="M277.6455,177.2236l-.0032.0057v.0093Z"/><path class="cls-8" d="M272.5988,186.4343c.0795-.2563.14-.5179.21-.7774l-.1935.3373C272.6194,186.1432,272.6033,186.2873,272.5988,186.4343Z"/><path class="cls-8" d="M318.2885,222.0186a76.8633,76.8633,0,0,1-9.1312-.9076q-4.5326-.7319-8.9884-1.8972c-1.4869-.38-2.9579-.8362-4.4223-1.3534-1.4875-.5578-2.8491-1.21-4.2407-1.8237-11.0945-5-22.2642-9.8351-33.582-14.3055-11.2673-4.5954-22.6793-8.8258-34.1672-12.8309-5.7468-1.9936-11.52-3.92-17.3544-5.6412q-5.6256-1.7293-11.3311-3.19c-1.3555-.1133-2.7123-.1781-4.07-.1832a59.4218,59.4218,0,0,1,6.3834,2.884,89.9739,89.9739,0,0,1,19.9976,15.8165c6.0479,5.9443,11.7373,12.2032,18.1722,17.5953,12.6744,11.06,27.5,19.41,42.8454,26.3405,6.7122,3.0477,13.562,5.8006,20.47,8.407.0142-.0441.024-.0893.0383-.1333-.0056.0473-.0106.0943-.0162.1416.9882.3728,1.9738.752,2.9644,1.1187,7.9033,2.9927,15.9042,5.7322,23.8724,8.5706-6.1667-1.7779-12.2794-3.7292-18.3624-5.7676.01.0781.0171.1567.0271.2349,5.7992,2.0376,11.6208,3.9828,17.4187,5.8881a.9188.9188,0,0,1,.7026-.1315c3.1185.7013,6.4952,1.2,9.762,1.6819,2.71.4,5.4991.8112,8.1726,1.3432a100.5707,100.5707,0,0,0-7.3321-12.9795c-1.0254-1.63-2.0527-3.265-3.0342-4.8892l-.4926-.8149c-3.0691-5.0623-5.9679-9.8436-6.5172-16.0321a28.5626,28.5626,0,0,1,.2725-8.1337A19.6949,19.6949,0,0,1,318.2885,222.0186Z"/><path class="cls-8" d="M298.61,251.8359q-2.7069-.9692-5.4-1.9774,2.6816,1.0426,5.38,2.045C298.5971,251.8811,298.6028,251.8584,298.61,251.8359Z"/><path class="cls-9" d="M193.2007,116.7992c1.6345-.0248,3.2655.0106,4.8932.0927A23.94,23.94,0,0,0,193.2007,116.7992Z"/><path class="cls-9" d="M193.5688,160.7063c-1.515,1.7488-3.6016,3.6781-5.8115,2.9925-2.7481-.8526-2.8195-4.6726-2.3335-7.5087l5.81-33.9027a2.3762,2.3762,0,0,1-.8928.6658,2.2454,2.2454,0,1,1,1.2961-3.019l.5179-3.0218a15.5381,15.5381,0,0,0-3.5646.9549,17.3359,17.3359,0,0,0-5.9018,3.9743,27.2679,27.2679,0,0,0-4.2261,5.8792,68.8048,68.8048,0,0,0-5.299,13.62c-1.3494,4.63-2.2229,9.6671-.679,14.2a14.6407,14.6407,0,0,0,3.8549,5.8427,25.0173,25.0173,0,0,0,5.91,3.9631,101.9263,101.9263,0,0,0,13.7238,4.8927c9.3691,2.9594,18.6366,6.2529,27.741,9.9532,9.128,3.6307,18.084,7.7277,26.88,12.0524a33.238,33.238,0,0,0,6.7232,2.56,15.3043,15.3043,0,0,0,7.0622-.0706,9.4818,9.4818,0,0,0,5.988-3.4788,19.9967,19.9967,0,0,0,2.2321-4.8208c.0045-.147.0206-.2911.0162-.44l.1935-.3373c.0674-.2521.136-.5039.1936-.7589a173.3572,173.3572,0,0,1-11.5636-27.6252,180.54,180.54,0,0,1-5.4092-21.1408,313.1044,313.1044,0,0,0-30.8135-11.9546ZM177.3333,157.19a2.2459,2.2459,0,1,1,1.3341-2.9627A2.2989,2.2989,0,0,1,177.3333,157.19Zm3.5638-17.6412a2.2459,2.2459,0,1,1,1.3342-2.9627A2.2988,2.2988,0,0,1,180.8971,139.5489ZM267.2089,192.31a2.2459,2.2459,0,1,1,1.3342-2.9626A2.2988,2.2988,0,0,1,267.2089,192.31ZM244.12,140.633l-8.8,3.8521a.2872.2872,0,0,1-.3455-.0918l-.0093-.0126a11.4835,11.4835,0,0,0-5.43-4.0482,12.372,12.372,0,0,0-6.72-.3167,15.2747,15.2747,0,0,0-10.207,8.2581,18.0523,18.0523,0,0,0-.8059,13.2365,13.1146,13.1146,0,0,0,8.8024,9.1837,8.6387,8.6387,0,0,0,6.2743-.6634,11.0965,11.0965,0,0,0,4.5121-4.6773,13.9646,13.9646,0,0,0,1.6269-6.4494,11.28,11.28,0,0,0-1.6693-6.355,7.019,7.019,0,0,0-5.4333-3.1908,5.1528,5.1528,0,0,0-3.08.7631,5.3137,5.3137,0,0,0-2.0052,2.5005,5.1444,5.1444,0,0,0,1.47,6.0535,5.89,5.89,0,0,0,6.5451.4553,5.9988,5.9988,0,0,1-6.8207-.082,5.8063,5.8063,0,0,1-1.9968-6.7186,5.9606,5.9606,0,0,1,2.25-3.0456,6.216,6.216,0,0,1,3.6749-1.05,8.2618,8.2618,0,0,1,6.5144,3.5389,14.241,14.241,0,0,1,.3985,14.3543,12.7915,12.7915,0,0,1-5.171,5.4454,10.4381,10.4381,0,0,1-7.5331.8906,12.6764,12.6764,0,0,1-6.45-3.9043,17.3257,17.3257,0,0,1-3.5986-6.52,19.7126,19.7126,0,0,1-.7179-8.4922,54.7381,54.7381,0,0,1-4.5008,5.5985,35.734,35.734,0,0,1,3.5044,3.427c1.3022,1.4335,2.5237,2.9016,3.7727,4.4227a26.29,26.29,0,0,1-4.809-3.3417c-1.2626-1.0449-2.47-2.1157-3.6932-3.1382l-.1477.16-.001-.0008c-.0113.0115-.021.0244-.0324.036a.9119.9119,0,0,1-1.3517-1.2235l.0246-.0285.7349-.848a.8973.8973,0,0,1,.5055-.2828,54.7492,54.7492,0,0,1,6.0092-4.9106,19.7023,19.7023,0,0,1,1.7508-5.8581,16.35,16.35,0,0,1,11.416-8.7225,13.4494,13.4494,0,0,1,7.2934.59,12.04,12.04,0,0,1,5.4417,4.4256Z"/><path class="cls-9" d="M272.2268,188.5493q-.1889.5082-.4053,1.0059A7.985,7.985,0,0,0,272.2268,188.5493Z"/><path class="cls-9" d="M277.6455,177.2236a18.5236,18.5236,0,0,1,1.9832-5.5188,18.7509,18.7509,0,0,1,3.1843-4.4651q-2.0241-4.9173-3.74-9.9581a156.8057,156.8057,0,0,0-1.4309,19.9477Z"/><polygon class="cls-10" points="198.584 198.554 198.584 198.554 198.583 198.555 198.584 198.554"/><path class="cls-10" d="M183.2573,199.27a3.508,3.508,0,0,1-.4371-1.8978,100.6754,100.6754,0,0,0-12.5452.8511,16.6994,16.6994,0,0,0,1.7765,2.2091C174.3934,199.5644,178.6686,199.1342,183.2573,199.27Z"/><path class="cls-10" d="M189.8432,197.6193c-.0021.1.02.1988.01.2981a3.5108,3.5108,0,0,1-.7605,1.8335,34.98,34.98,0,0,1,6.1492,1.3786,34.901,34.901,0,0,0,3.3423-2.5751l-.0017,0C195.6825,198.1206,192.7666,197.8184,189.8432,197.6193Z"/><path class="cls-11" d="M185.9661,201.0622a3.525,3.525,0,0,1-2.7088-1.7925c-4.5887-.1355-8.8639.2947-11.2058,1.1624a16.6928,16.6928,0,0,0,11.0761,5.02,17.6087,17.6087,0,0,0,8.2015-2.0143,34.9034,34.9034,0,0,0,3.9124-2.3087,34.98,34.98,0,0,0-6.1492-1.3786A3.5254,3.5254,0,0,1,185.9661,201.0622Z"/><path class="cls-7" d="M342.2553,324.1617c-3.233,2.6385-6.8563,4.8531-9.3131,8.1089a21.1619,21.1619,0,0,0-3.8283,11.3891,77.1777,77.1777,0,0,0,.3967,12.3673,194.0428,194.0428,0,0,0,3.1468,24.659c.0909.468.2042.93.305,1.3957,8.72,5.3972,18.7679,7.0021,28.8384,9.4782.7093-34.5978-10.0987-34.1705-8.7678-44.0293a15.0759,15.0759,0,0,1-12.9924-3.8579,37.6948,37.6948,0,0,0,8.9859,2.1772,37.3085,37.3085,0,0,0,4.3958.1586c1.3925-4.0787,4.6743-7.3677,9.0887-10.0675a24.0056,24.0056,0,0,1-6.2882-5.0515,24.6562,24.6562,0,0,1-5.9054-12.1993.8752.8752,0,0,1,.2479-.7649,30.2153,30.2153,0,0,1,5.607-4.1561l2.9643-1.7068c.9735-.5412,1.9569-1.15,3.04-1.6519a18.1957,18.1957,0,0,1,6.8416-1.7977,13.6917,13.6917,0,0,1,6.97,1.49,23.6072,23.6072,0,0,1,5.6361,4.1538c.8355.7953,1.6341,1.618,2.416,2.446a8.4082,8.4082,0,0,0,2.4121,2.0186,13.9825,13.9825,0,0,0,6.2892,1.2392c2.0206.0434,4.0826-.0572,6.176.0059a11.7984,11.7984,0,0,1,1.5977-6.2584,14.6053,14.6053,0,0,1,13.9937-7.273c1.6323-4.5989,3.2411-9.517,5.3825-14.0755a39.335,39.335,0,0,1-18.9329-10.3653c-1.149,2.3668-2.1446,4.5595-2.95,6.5229a5.52,5.52,0,0,1-7.1141,3.1753q-.1621-.0618-.3187-.1319a8.589,8.589,0,0,1-4.1824-8.3044,24.1257,24.1257,0,0,1,.5128-2.6407,17.5969,17.5969,0,0,1-18.7063-5.7029c.346-1.2323.7246-2.4542,1.0892-3.6807l-.0386-.007q-1.0344,2.9316-2.0571,5.8529l-.82,2.3375a181.9961,181.9961,0,0,1-17.4292,36.8416.9361.9361,0,0,1-.8147.4425,11.3644,11.3644,0,0,1-1.5279,2.9237A23.0387,23.0387,0,0,1,342.2553,324.1617Z"/><path class="cls-7" d="M402.9962,435.8422c7.768,13.8553,11.3946,29.1038,22.1111,40.7051a51.2545,51.2545,0,0,0,9.9507-7.3988,49.1785,49.1785,0,0,0,10.3626-13.9951c-.2027-2.9856-.5183-5.9595-.8914-8.9259q-2.9959-12.4975-5.265-25.158c-1.1343-3.8273-2.4517-7.5932-3.92-11.303C427.3847,421.0663,416.9652,430.7921,402.9962,435.8422Z"/><path class="cls-4" d="M374.6325,477.4194h.0036c-.671-.21-1.3307-.4466-1.9861-.6929C373.3014,476.9784,373.9613,477.2117,374.6325,477.4194Z"/><path class="cls-4" d="M419.891,292.3591c-2.1414,4.5585-3.75,9.4766-5.3825,14.0755a14.5593,14.5593,0,0,1,4.5014,1.1362,20.6243,20.6243,0,0,1,10.3525,8.932,32.1171,32.1171,0,0,1,3.7544,10.7087,18.8716,18.8716,0,0,0-.6093-12.6379c-1.47-3.526-5.3379-6.953-10.6117-9.3995a.94.94,0,0,1-.4871-1.1683q1.9521-5.4279,4.0683-10.8009A39.3455,39.3455,0,0,1,419.891,292.3591Z"/><path class="cls-4" d="M425.1073,476.5473c-10.7165-11.6013-14.3431-26.85-22.1111-40.7051,13.969-5.05,24.3885-14.7759,32.3477-26.0757-1.3964-3.5274-2.8972-7.0144-4.5886-10.416l-.0072-.0143a.7511.7511,0,0,1-.0668-.4751c.038-.1972.089-.3915.1281-.5885a28.4615,28.4615,0,0,1-20.5507,18.9334,53.1082,53.1082,0,0,0,20.6439-19.3618,97.0363,97.0363,0,0,1,5.0751-16.9484c1.1469-2.9009,2.4664-5.7277,3.8468-8.5161.9692-1.955,2.0075-3.8717,3.0777-5.7706a.9142.9142,0,0,1-.1034-.11.9314.9314,0,0,1-.1026-.7471c1.8935-6.6554,4.0415-14.1981,3.2376-21.499a17.743,17.743,0,0,0-8.6321-13.17,13.026,13.026,0,0,1,2.11,3.6636,34.8961,34.8961,0,0,1,2.2132,8.6333,28.29,28.29,0,0,1-.1744,8.9585,7.3033,7.3033,0,0,1-2.294,3.99,4.897,4.897,0,0,1-4.545,1.1052.43.43,0,0,1-.19-.1592,45.107,45.107,0,0,0-8.8078,6.461c-3.1116,2.7287-5.9074,5.89-9.379,8.3983a18.43,18.43,0,0,1-12.0651,4.132,13.306,13.306,0,0,1-6.2515-2.0458,9.6335,9.6335,0,0,1-3.6823-4.3015,6.34,6.34,0,0,1-4.5183.8058,12.1088,12.1088,0,0,1-5.0355-2.0207,12.2383,12.2383,0,0,1-4.8173-9.4125,27.0962,27.0962,0,0,1,1.8243-10.29,78.8885,78.8885,0,0,0,2.82-8.795c-1.9768-.5964-3.9906-1.1551-5.9958-1.8241a28.4609,28.4609,0,0,1-6.1577-2.7357l-3.874,2.3342-.0428.0258a.9254.9254,0,0,1-.7186.0992,23.9945,23.9945,0,0,1-5.2093-2.1654c-4.4144,2.7-7.6962,5.9888-9.0887,10.0675a37.2865,37.2865,0,0,0,4.8464-.4145,15.0145,15.0145,0,0,1-5.2357,1.9366c-1.3309,9.8588,9.4771,9.4315,8.7678,44.0293-10.07-2.4761-20.1185-4.081-28.8384-9.4782a65.7928,65.7928,0,0,0,8.7574,21.3641.9259.9259,0,0,1,.05.9336,19.1049,19.1049,0,0,0-1.7929,10.0916,59.789,59.789,0,0,0,1.8543,10.5376c1.7748,7.021,3.438,14.0663,5.7726,20.8762a62.5819,62.5819,0,0,0,9.9729,18.9852,37.568,37.568,0,0,0,17.0773,12.55l48.6586.1061C423.9176,477.21,424.5161,476.8864,425.1073,476.5473ZM341.436,401.5247a102.897,102.897,0,0,0,13.525,5.25,104.1682,104.1682,0,0,0,14.1757,3.0881A36.3385,36.3385,0,0,1,341.436,401.5247Z"/><path class="cls-12" d="M433.651,329.4191l-.0052-.0019a.0884.0884,0,0,1-.0363.0777C433.6484,329.4691,433.66,329.4438,433.651,329.4191Z"/><path class="cls-12" d="M433.421,329.3262c.0071.0732.0247.1447.0314.218.08-.0272.2038-.0571.1821-.1315-.0646-.02-.1227-.0527-.1876-.0724C433.4373,329.3373,433.4305,329.3294,433.421,329.3262Z"/><path class="cls-13" d="M395.7948,337.3351c.0869-.0345.167-.0824.2529-.119-10.2231.38-19.0578-11.0317-25.2451-7.6695.5378,1.3949,1.11,2.776,1.7336,4.1348a.9108.9108,0,0,1,.33.1038,26.7487,26.7487,0,0,0,6.232,2.8556c2.2152.7513,4.4979,1.37,6.79,2.095a.8856.8856,0,0,1,.3973.2787c1.2458-.0717,2.4851-.1533,3.7035-.29A21.269,21.269,0,0,0,395.7948,337.3351Z"/><path class="cls-13" d="M401.5677,356.4716c1.4874-2.2922,3.0626-4.5247,4.6784-6.7281a80.8422,80.8422,0,0,1-3.3919-16.01,7.8444,7.8444,0,0,1-.9794,1.4665,12.3868,12.3868,0,0,1-5.471,3.7151,17.9112,17.9112,0,0,1-6.3606.9428c-1.1848-.0359-2.3648-.1407-3.54-.2855a.8762.8762,0,0,1-.0027.2046,79.8681,79.8681,0,0,1-3.15,9.7943,25.4452,25.4452,0,0,0-1.6979,7.44c.0042-.0238.0041-.0481.0085-.0719a13.9665,13.9665,0,0,1,.6938-2.503,8.2621,8.2621,0,0,1,1.3341-2.3794.7741.7741,0,0,1,.7518-.2567l.0524.0115a18.8167,18.8167,0,0,1,4.728,1.5752,10.68,10.68,0,0,1,3.9382,3.3319l.0147.02a.8577.8577,0,0,1,.1615.5236,19.7219,19.7219,0,0,1-4.1231,11.6642c.2494.0572.4862.1434.7432.1816a4.77,4.77,0,0,0,4.0841-.9781.7868.7868,0,0,1,.6914-.204c.9377-1.759,1.9228-3.4909,2.9149-5.2216Q399.5588,359.5607,401.5677,356.4716Z"/><path class="cls-13" d="M406.9815,351.7057q-2.1271,2.787-4.2326,5.5938c-2.6408,3.524-5.2081,7.1074-7.8213,10.6757a.795.795,0,0,1,.2454.1666.8191.8191,0,0,1,.1982.3407c1.0674,3.6975,5.0413,5.9808,8.9217,6.3056.24.0076.4779-.0066.7171-.009a45.7005,45.7005,0,0,0,4.3466-9.0218,6.024,6.024,0,0,0-2.4717-2.7537,25.786,25.786,0,0,0-4.183-1.9181,11.17,11.17,0,0,1,4.8.6941,6.4163,6.4163,0,0,1,3.7112,3.6035.95.95,0,0,1,.02.6012,17.6248,17.6248,0,0,1-5.6575,8.7877,17.0682,17.0682,0,0,0,9.8995-3.6952,45.5756,45.5756,0,0,0,4.74-3.9293C413.591,363.78,409.5522,358.2031,406.9815,351.7057Z"/><path class="cls-13" d="M384.6029,353.536a11.696,11.696,0,0,0-1.919,3.6767,34.9975,34.9975,0,0,0-1.0017,3.53,9.795,9.795,0,0,0,7.2932,8.1263,28,28,0,0,0,2.5343-11.2683A13.7123,13.7123,0,0,0,384.6029,353.536Z"/><path class="cls-13" d="M369.37,330.46a62.3841,62.3841,0,0,1-6.3116,3.69,22.1787,22.1787,0,0,0,4.7846,2.0532l3.98-2.4174.0359-.0219a.9072.9072,0,0,1,.2967-.0794A12.1934,12.1934,0,0,1,369.37,330.46Z"/><path class="cls-5" d="M433.651,329.4191c.0092.0247-.0026.05-.0415.0758a1.0555,1.0555,0,0,1-.1658.0864l-.0186-.0057-.0019-.0079c-.01-.0892-.034-.1757-.045-.2647a.9153.9153,0,0,1-.5411-1.175c.0845-.2371.1447-.4795.2194-.7189a31.9056,31.9056,0,0,0-4.0241-10.7035,20.0566,20.0566,0,0,0-10.278-8.4374,14.3374,14.3374,0,0,0-12.7893,1.2041,12.2044,12.2044,0,0,0-5.8252,11.0468c.0058.0507-.0326.0874-.0389.1358a4.8111,4.8111,0,0,1,4.2887,2.369,5.2715,5.2715,0,0,1-.7631,6.0788,7.833,7.833,0,0,1-.7724,4.6308,80.8422,80.8422,0,0,0,3.3919,16.01q1.9341-2.6374,3.9436-5.2188c3.0721-3.8425,6.2154-7.5945,9.6459-11.1576a17.8675,17.8675,0,0,1,6.1341-4.3666,8.2736,8.2736,0,0,1,7.2744.5,8.2087,8.2087,0,0,0-6.9235.3443,16.9944,16.9944,0,0,0-5.4326,4.5c-3.1115,3.7213-6.2235,7.5084-9.2277,11.3422q-2.373,2.983-4.6788,6.02c2.5707,6.4974,6.61,12.0739,13.2335,15.4418,1.5351-1.4156,3.05-2.88,4.6586-4.253a46.0409,46.0409,0,0,1,10.4018-7.1811.4689.4689,0,0,1,.624.2244.4744.4744,0,0,1-.0677.5044l-.1988.2327a4.0286,4.0286,0,0,0,3.0187-.9655,6.5649,6.5649,0,0,0,2.1355-3.5413,27.8239,27.8239,0,0,0,.3841-8.7379,34.5376,34.5376,0,0,0-1.9723-8.6015,12.8673,12.8673,0,0,0-2.1129-3.8547c-.0075-.01-.0178-.0172-.0254-.0272A17.6967,17.6967,0,0,0,433.651,329.4191Z"/><path class="cls-5" d="M368.1646,320.5857c.6,2.4813,1.1028,4.7287,1.8733,6.9473.2381.6777.5065,1.3436.7647,2.0136,6.1873-3.3622,15.022,8.05,25.2451,7.6695a11.8472,11.8472,0,0,0,4.3728-3.1931,6.451,6.451,0,0,0,1.5268-5.0736l-.0077-.0539a.7834.7834,0,0,1,.2892-.7235,4.1516,4.1516,0,0,0,1.17-4.6517,4.5781,4.5781,0,0,0-3.3731-2.6026.587.587,0,0,1-.4231.2772l-.0878.0038-.0146-.0006c-2.2142-.0795-4.4724.1023-6.7759.0885a15.2623,15.2623,0,0,1-6.9339-1.3032,9.9061,9.9061,0,0,1-2.8148-2.26c-.7856-.808-1.5779-1.6-2.395-2.3556a23.2536,23.2536,0,0,0-5.3027-3.8358,13.7522,13.7522,0,0,0-12.39.38,51.96,51.96,0,0,0-10.7652,6.9685,22.8928,22.8928,0,0,0,5.4339,10.8158,22.18,22.18,0,0,0,5.5017,4.4539,62.3841,62.3841,0,0,0,6.3116-3.69A12.2312,12.2312,0,0,1,368.1646,320.5857Zm33.5788,7.6468a6.6489,6.6489,0,0,1-9.2673-1.5914q-.0672-.0952-.1312-.1927c1.757.3827,3.1666.7776,4.67,1.0458C398.5113,327.8,399.97,327.9487,401.7434,328.2325Z"/><path class="cls-14" d="M496.676,412.6c-.1866-.9077-.3788-1.6806-.5841-2.381.4606,2.442.9051,4.887,1.2985,7.3392A45.8365,45.8365,0,0,0,496.676,412.6Z"/><path class="cls-14" d="M473.816,392.5065a46.18,46.18,0,0,0-26.1731,11.2611,44.0967,44.0967,0,0,0-5.1056,5.1948,49.0481,49.0481,0,0,0-3.7368,5.0166c1.453,4,2.7536,8.0552,3.8221,12.18a153.5125,153.5125,0,0,1,4.341,29.1089l.0009.0182a.7185.7185,0,0,1-.0276.1263,38.8874,38.8874,0,0,1,7.1981,22.18l44.2971.0966a270.9994,270.9994,0,0,0-4.4059-68.3857c-1.1078-5.3343-4.7482-10.8416-7.9583-15.7006-.1743-.2637-.33-.5108-.5021-.7721-.0248-.0057-.05-.0123-.0744-.0179A50.1731,50.1731,0,0,0,473.816,392.5065Z"/><path class="cls-14" d="M440.8154,426.6234c-.4672-1.866-1.0051-3.7114-1.5512-5.5539q2.2742,12.6545,5.265,25.158A156.541,156.541,0,0,0,440.8154,426.6234Z"/><path class="cls-15" d="M308.0619,271.8312c-.0006-.1349-.0052-.34-.0126-.587-.0178.3818-.0476.7632-.07,1.1449C308.0017,272.2023,308.0415,272.0183,308.0619,271.8312Z"/><path class="cls-15" d="M301.3932,271.94l.0034-.0158a.5277.5277,0,0,1,.9133-.2311,21.7633,21.7633,0,0,1,4.2011,7.057,95.6392,95.6392,0,0,0,1.0737-17.57c-.0662-1.3017-.1287-2.5166-.1827-3.5551q-.0979-1.4179-.2371-2.8339c-2.8024-.9405-5.599-1.8963-8.3823-2.8918-.7548,6.4938-1.426,12.9161-1.6771,19.3784-.3074,6.5786-.1816,13.1515.0144,19.8093l1.213-5.4352Z"/><path class="cls-16" d="M223.46,243.2592c-1.08.36-2.0785.931-3.1478,1.3219a10.1718,10.1718,0,0,1-7.6315-.2988c-1.0446-.4775-2.2086-1.1483-3.26-.6868a2.7844,2.7844,0,0,0-1.331,2.5936,13.5874,13.5874,0,0,0,2.9027,7.3445c1.6881,2.6075,3.8014,5.4836,6.8959,5.7532a7.3066,7.3066,0,0,0,4.9656-1.7421C226.1018,255.0286,232.0919,240.3821,223.46,243.2592Z"/><path class="cls-15" d="M294.3261,18.6465A219.1786,219.1786,0,0,0,271.524,32.9533a77.283,77.283,0,0,1,8.7718-.1517c1.6261.062,3.2364.18,4.8372.33,2.4728.2326,4.9172.5635,7.34.9678,4.7635.7946,9.4446,1.8693,14.09,3.0521,3.37.8582,6.7231,1.7646,10.0751,2.6614,3.3826.905,6.7678,1.7875,10.1706,2.5894,2.1372.5037,4.2827.971,6.44,1.3881,1.6539.32,3.3128.6186,4.9837.869q-2.8845.0111-5.6912.2591-1.4042.1233-2.7911.3034c-12.0214,1.56-23.1135,6.2906-34.197,13.2777,27.3487-.1062,53.0146,6.6314,78.6938,16.7877a526.3749,526.3749,0,0,0-90.5394,14.0259q2.4031-.1695,4.7859-.1425c23.8255.2518,46.0161,14.6881,63.7053,30.6444l0,0,0,0a168.736,168.736,0,0,0-16.7058-5.7867,200.1845,200.1845,0,0,0-35.0154-6.7q-5.9691-.62-12.0006-.9365-3.0138-.16-6.04-.2478t-6.059-.1076q-3.0333-.02-6.0734.0278c-.8591.0133-1.7193.046-2.5789.067-3.1955.078-6.3932.1934-9.5916.3742,8.5663,5.0947,13.734,15.3305,17.1858,23.8637q-1.92-1.8558-3.9337-3.6a97.5966,97.5966,0,0,0-17.4474-12.0622q-2.3352-1.2638-4.7393-2.4a97.6224,97.6224,0,0,0-9.8611-4.019q.7448,2.0922,1.3729,4.2223c.343,1.1636.6424,2.3392.9325,3.5175q6.6405,1.8621,13.15,4.2672a.7671.7671,0,0,1,.4875.6289c.5862,5.2939,1.4231,10.5458,2.4772,15.747.111.0594.2248.1134.3357.173a.0938.0938,0,0,1-.0833.168l0,0c-.0666-.0306-.1343-.0588-.201-.0893a177.8534,177.8534,0,0,0,18.205,49.7587,152.1608,152.1608,0,0,1,1.834-33.4214.8955.8955,0,0,1,1.7368-.1134,172.1914,172.1914,0,0,0,14.9669,34.1965,156.0985,156.0985,0,0,0,15.9938,22.9908c1.5808,1.8859,3.22,3.7236,4.8895,5.5344-.8054-11.5709-1.3819-23.1789-1.15-34.7945a59.2108,59.2108,0,0,1-1.3879-9.7607,58.5514,58.5514,0,0,1,.19-11.18,58.551,58.551,0,0,1,1.6794,11.0546,59.2116,59.2116,0,0,1,.0425,8.5377.5057.5057,0,0,1,.3617.1775c5.6916,7.1709,10.6888,14.8443,16.8779,21.535-.0885-5.555.5394-11.0671.3919-16.5942a.0786.0786,0,0,1,.0741-.0831l.0349.006a31.229,31.229,0,0,0,3.4485,1.0427,6.0534,6.0534,0,0,1,2.0289,1.0283.9238.9238,0,0,1,.3711-.2551.9373.9373,0,0,1,.9833.2573c1.9832,2.1663,3.82,4.3069,5.5961,6.3762,1.0878,1.2681,2.1993,2.5618,3.3511,3.87q-.129-.6936-.2563-1.388c-1.9558-10.5779-3.9774-21.5165-2.6479-32.3168a.9371.9371,0,0,1,1.3019-.7463,91.9515,91.9515,0,0,0,63.7071,3.38,181.5817,181.5817,0,0,1-29.8264-21.2125.9372.9372,0,0,1,.3186-1.594,295.547,295.547,0,0,0,76.19-38.6509,189.551,189.551,0,0,1-47.4076-10.0313.9378.9378,0,0,1-.2014-1.6709,313.9655,313.9655,0,0,1,37.2079-20.6915,640.5712,640.5712,0,0,0-73.55-18.1306.9391.9391,0,0,1-.7434-.7114.8809.8809,0,0,1,.0136-.2122,13.3279,13.3279,0,0,1-5.2356.2316,13.1755,13.1755,0,0,1-4.9944-1.6232,13.1758,13.1758,0,0,1,5.2464-.2337,13.32,13.32,0,0,1,4.984,1.6181.914.914,0,0,1,.343-.7457c8.92-6.5867,16.53-10.6584,23.6535-12.6233a177.009,177.009,0,0,0-65.8953-8.6377,1.0011,1.0011,0,0,1-.8588-.4569.9363.9363,0,0,1,.0091-.9741A71.4754,71.4754,0,0,1,349.7268,8.6975a221.5548,221.5548,0,0,0-38.0476,1.45c-2.7886,1.2168-5.5594,2.4713-8.2926,3.802C300.3268,15.4387,297.3122,17.0165,294.3261,18.6465Z"/><path class="cls-6" d="M197.627,109.8207c1.4118-14.0752,8.3752-30.5393,18.5845-38.0029a58.3314,58.3314,0,0,0-11.955,36.6076,13.1048,13.1048,0,0,1,.1279,1.5723c.9.0423,1.7988.1208,2.6985.1775A84.5249,84.5249,0,0,1,245.82,65.4263a132.9716,132.9716,0,0,0-29.964,45.5251,166.9537,166.9537,0,0,1,25.7883,5.0767c-.29-1.1781-.5895-2.354-.9325-3.5175q-.6281-2.1292-1.3729-4.2223h0a97.6224,97.6224,0,0,1,9.8611,4.019q2.4033,1.1361,4.7393,2.4A97.5966,97.5966,0,0,1,271.3868,126.77q2.013,1.7436,3.9337,3.6c-3.4518-8.5332-8.6195-18.769-17.1858-23.8637,3.1984-.1808,6.3961-.2962,9.5916-.3742.86-.021,1.72-.0537,2.5789-.067q3.04-.0468,6.0734-.0278t6.059.1076q3.0252.0884,6.04.2478,6.0282.32,12.0006.9365a200.1845,200.1845,0,0,1,35.0154,6.7,168.7336,168.7336,0,0,1,16.7057,5.7866l0,0c-17.6892-15.9563-39.88-30.3926-63.7053-30.6444q-2.3825-.0252-4.7859.1425h0a526.3749,526.3749,0,0,1,90.5394-14.0259C348.568,65.1312,322.9021,58.3936,295.5534,58.5c11.0835-6.9871,22.1756-11.7174,34.197-13.2777q1.387-.18,2.7911-.3034,2.8083-.2462,5.6912-.2591c-1.6709-.25-3.33-.5493-4.9837-.869-2.1576-.4171-4.3031-.8844-6.44-1.3881-3.4028-.8019-6.788-1.6844-10.1706-2.5894-3.3521-.8968-6.7053-1.8032-10.0751-2.6614-4.6452-1.1828-9.3263-2.2575-14.09-3.0521-2.423-.4043-4.8674-.7351-7.34-.9678-1.6008-.1505-3.2111-.2682-4.8372-.33a77.2864,77.2864,0,0,0-8.772.1518l0,0a219.1786,219.1786,0,0,1,22.8021-14.3068c2.9861-1.63,6.0007-3.2078,9.06-4.6975,2.7331-1.3306,5.504-2.5853,8.2924-3.802A222.3983,222.3983,0,0,0,240.4956,31.44a.915.915,0,0,1-.3443.052c-1.0467,1.4418-2.1184,2.7975-3.157,4.1939-1.536,1.9738-2.9643,3.9876-4.7276,5.9776a17.5594,17.5594,0,0,1,6.9842-10.72.9.9,0,0,1-.0207-.74c2.5316-5.4285,4.8417-10.3645,7.1526-15.3,2.0455-4.371,4.0918-8.7421,6.2911-13.4546-19.3017,5.6309-38.8093,19.51-51.3081,36.6063a.938.938,0,0,1-1.6746-.358c-1.5043-7.0912-2.6186-15.3526-.0394-23.8255-15.93,12.2506-28.8357,31.6017-36.5194,54.8559a.9375.9375,0,0,1-1.6755.2179,48.1467,48.1467,0,0,1-6.7955-16.5823,126.8211,126.8211,0,0,0,.5219,62.6872A166.9589,166.9589,0,0,1,197.627,109.8207Z"/><path class="cls-15" d="M216.2115,71.8178c-10.2093,7.4636-17.1727,23.9277-18.5845,38.0029q3.3805.0216,6.7574.177a13.1048,13.1048,0,0,0-.1279-1.5723A58.3314,58.3314,0,0,1,216.2115,71.8178Z"/><path class="cls-15" d="M245.82,65.4263a84.5249,84.5249,0,0,0-38.7372,44.7489c2.93.1851,5.8554.4368,8.7732.7762A132.9716,132.9716,0,0,1,245.82,65.4263Z"/><path class="cls-17" d="M191.6749,119.9905a2.2141,2.2141,0,0,1-.4413,2.2969l-5.81,33.9027c-.486,2.8361-.4146,6.6561,2.3335,7.5087,2.21.6856,4.2965-1.2437,5.8115-2.9925l31.647-36.5289q-11.1308-3.6536-22.5189-6.483a42.5266,42.5266,0,0,0-4.603-.8025c-1.6277-.0821-3.2587-.1175-4.8932-.0927-.35.032-.6994.0613-1.0459.1132l-.5179,3.0218C191.6464,119.9556,191.6661,119.9687,191.6749,119.9905Z"/><path class="cls-15" d="M175.6461,153.0325a2.2459,2.2459,0,1,0,3.0213,1.1949A2.2987,2.2987,0,0,0,175.6461,153.0325Z"/><path class="cls-15" d="M265.5217,188.1519a2.2459,2.2459,0,1,0,3.0214,1.195A2.2987,2.2987,0,0,0,265.5217,188.1519Z"/><path class="cls-15" d="M179.21,135.3913a2.2459,2.2459,0,1,0,3.0215,1.1949A2.2988,2.2988,0,0,0,179.21,135.3913Z"/><path class="cls-15" d="M191.6749,119.9905c-.0088-.0218-.0285-.0349-.038-.0563a2.3445,2.3445,0,1,0-1.2961,3.019,2.3762,2.3762,0,0,0,.8928-.6658A2.2141,2.2141,0,0,0,191.6749,119.9905Z"/><path class="cls-5" d="M446.6756,456.013a50.4192,50.4192,0,0,1-10.964,13.85,48.4053,48.4053,0,0,1-11.6025,7.5578c-.063.0352-.1258.0708-.1888.1059l29.9994.0654c-1.2-3.902-2.28-7.7332-3.581-11.5091C449.2248,462.7088,447.9422,459.3953,446.6756,456.013Z"/><path class="cls-5" d="M368.1992,274.9121a38.4124,38.4124,0,0,0,18.8,5.37,23.7386,23.7386,0,0,1,2.31-5.7257,430.56,430.56,0,0,0,22.0328-55.0839c2.0619-6.4046,1.67-10.5028-1.1976-12.53a6.4581,6.4581,0,0,0-5.6327-.6886c-3.547,1.13-5.8928,4.08-7.9913,7.0052-12.2729,17.1067-19.9688,37.3034-27.0212,57.2575-.0715.2378-.1407.4765-.2114.7145C368.9238,272.4579,368.5452,273.68,368.1992,274.9121Z"/><path class="cls-5" d="M425.5605,292.9971a419.5038,419.5038,0,0,1,31.5783-63.98,30.6049,30.6049,0,0,0,4.0817-8.558,9.2092,9.2092,0,0,0-1.6957-8.3292c-2.6149-2.8219-7.3156-2.6589-10.5916-1.0136a27.131,27.131,0,0,0-8.7054,8.364c-14.662,19.3437-31.0174,45.5224-39.2569,62.4866,4.142,2.2443,8.17,4.4222,12.381,6.2707C417.3114,290.0275,421.3819,291.5017,425.5605,292.9971Z"/><path class="cls-3" d="M277.9778,420.2977a5.0933,5.0933,0,0,0,1.5221,5.9247,4.8752,4.8752,0,0,0,4.0927.36,11.8356,11.8356,0,0,0,3.6344-2.15,43.5789,43.5789,0,0,0,10.8372-12.7856A47.1073,47.1073,0,0,1,280.92,416.313,7.1952,7.1952,0,0,0,277.9778,420.2977Z"/><path class="cls-3" d="M108.9158,389.01l-1.7765-9.6008c-.5352-3.2308-1.1081-6.4534-1.6148-9.69q-4.9907,1.8084-9.989,3.4739A60.6426,60.6426,0,0,0,108.9158,389.01Z"/><path class="cls-3" d="M105.6418,369.6776l-.0013,0,.01.0394Z"/><path class="cls-18" d="M193.7189,453.4285c.1823-4.0856.4469-8.1742.7172-12.2663.1833-2.7259.4446-5.4475.7413-8.167-.928,2.591-1.7886,5.2056-2.4982,7.866-1.0277,4.0025-1.7514,8.0758-2.4969,12.1321l-2.4171,12.1416c-.827,3.9562-1.6183,7.9243-2.5673,11.8714l7.2807.0159c.2893-3.786.52-7.5662.7184-11.347Z"/><path class="cls-18" d="M317.0954,471.1557a6.2191,6.2191,0,0,0-1.5484-3.0145,3.6479,3.6479,0,0,0-2.8371-1.1291,6.21,6.21,0,0,0-4.9378,4.2846,23.45,23.45,0,0,0-.8345,5.9752l9.5178.0207c.2525-.8228.48-1.653.6518-2.4968A10.6349,10.6349,0,0,0,317.0954,471.1557Z"/><path class="cls-18" d="M67.8948,471.5358a5.3256,5.3256,0,0,0-4.3282-3.5336,4.4328,4.4328,0,0,0-4.1206,3.453,18.5274,18.5274,0,0,0-.4054,5.2761l9.2544.02a15.48,15.48,0,0,0,.2324-2.0721A8.3013,8.3013,0,0,0,67.8948,471.5358Z"/><path class="cls-14" d="M20.0424,401.1549a56.4861,56.4861,0,0,1,5.7938-4.1377A38.1163,38.1163,0,0,0,20.0424,401.1549Z"/><path class="cls-14" d="M19.7033,467.42l-.8417-5.2772-.6124-5.3139a121.6977,121.6977,0,0,1,.072-21.394,118.6448,118.6448,0,0,1,4.0515-21.0091,95.8993,95.8993,0,0,1,6.8776-17.22,54.6365,54.6365,0,0,0-10.8073,7.8256C7.9,415.0893,3.8072,429.0091,2.2315,438.9149.251,451.367.95,464.1834,1.6858,476.6062l20.27.0442c-.3778-1.3348-.7568-2.67-1.1055-4.0159Z"/><path class="cls-13" d="M152.9263,212.7536c-.3834-1.1362-.729-2.285-1.1016-3.4247a11.7482,11.7482,0,0,0-.9431,2.8757,8.6137,8.6137,0,0,0,1.19,6.12,11.8465,11.8465,0,0,0,2.2618,2.6293c-.0143-.0017-.0277-.007-.042-.0088.1054.0491.2114.0941.3192.1384-.3106-2.5644-.5908-5.145-.8613-7.7337A.8855.8855,0,0,1,152.9263,212.7536Z"/></g></g></svg>